<svg width="58" height="58" viewBox="0 0 58 58" fill="none" xmlns="http://www.w3.org/2000/svg">
<path d="M24.6587 4.37984C38.2561 1.98226 51.2225 11.0615 53.6201 24.6588C56.0177 38.2562 46.9385 51.2226 33.3411 53.6202C19.7438 56.0178 6.7773 46.9386 4.37972 33.3412C1.98214 19.7439 11.0614 6.77742 24.6587 4.37984Z" fill="#ECECEC"/>
<path d="M24.6587 4.37984C38.2561 1.98226 51.2225 11.0615 53.6201 24.6588C56.0177 38.2562 46.9385 51.2226 33.3411 53.6202C19.7438 56.0178 6.7773 46.9386 4.37972 33.3412C1.98214 19.7439 11.0614 6.77742 24.6587 4.37984Z" stroke="black"/>
<g filter="url(#filter0_d_136320_144)">
<path d="M27.2852 37.6225L19.0255 29.2161L27.4319 20.9564" stroke="black"/>
</g>
<defs>
<filter id="filter0_d_136320_144" x="14.3185" y="20.5996" width="17.4639" height="25.373" filterUnits="userSpaceOnUse" color-interpolation-filters="sRGB">
<feFlood flood-opacity="0" result="BackgroundImageFix"/>
<feColorMatrix in="SourceAlpha" type="matrix" values="0 0 0 0 0 0 0 0 0 0 0 0 0 0 0 0 0 0 127 0" result="hardAlpha"/>
<feOffset dy="4"/>
<feGaussianBlur stdDeviation="2"/>
<feComposite in2="hardAlpha" operator="out"/>
<feColorMatrix type="matrix" values="0 0 0 0 0 0 0 0 0 0 0 0 0 0 0 0 0 0 0.25 0"/>
<feBlend mode="normal" in2="BackgroundImageFix" result="effect1_dropShadow_136320_144"/>
<feBlend mode="normal" in="SourceGraphic" in2="effect1_dropShadow_136320_144" result="shape"/>
</filter>
</defs>
</svg>
